
   <svg xmlns="http://www.w3.org/2000/svg" xmlnsXlink="http://www.w3.org/1999/xlink" version="1.1" x="0px" y="0px" viewBox="0 0 1000 1000" enableBackground="new 0 0 1000 1000" xmlSpace="preserve">
        <metadata> Svg Vector Icons : http://www.onlinewebfonts.com/icon </metadata>
        <g><g transform="translate(0.000000,512.000000) scale(0.100000,-0.100000)"><path d="M1184.8,4940.2C724.4,4900,265.8,4817.5,143,4756c-67.2-36.5-69.1-36.5,92.1-496.9c757.9-2177.7,3227.2-8603.3,3392.2-8824c42.2-55.6,458.6-90.2,1577.1-128.5c771.3-26.9,1341.2-17.3,1381.4,23c49.9,48,424,1064.9,1285.5,3480.5c1235.6,3469,2053,5821.2,2028,5846.2c-26.9,26.9-1003.5,53.7-2031.9,53.7H6866l-30.7-42.2c-51.8-76.7-809.7-1889.9-1534.9-3674.3C5217.9,790.2,5148.8,625.1,5145,629c-1.9,1.9-278.2,715.7-612.1,1586.7C4197.2,3086.8,3823,4050,3700.2,4355l-222.6,556.4l-191.9,11.5C2938.5,4946,1390.1,4957.5,1184.8,4940.2z M2900.1,4485.5l264.8-11.5l55.6-122.8c86.3-195.7,376.1-974.7,917.1-2477C4696,323.9,4874.4-157.7,4930.1-265.1c42.2-84.4,95.9-109.4,228.3-109.4h95.9l55.6,120.9c30.7,67.1,280.1,673.4,552.6,1348.8c882.6,2170,1166.5,2851.2,1283.6,3085.2l67.2,132.4l404.8-13.4c798.2-25,1705.7-76.7,1742.1-97.9c7.7-5.8,1.9-42.2-13.4-82.5c-13.4-38.4-318.5-878.8-677.3-1865c-358.8-986.2-928.6-2553.8-1268.2-3482.4c-339.6-928.6-721.4-1974.3-848-2325.4c-147.7-404.8-243.7-640.8-262.9-650.4c-61.4-25-1214.5-46.1-1747.9-32.6l-546.8,15.3l-360.7,921C2136.5,527.3,895.1,3764.1,732,4272.5c-40.3,128.5-48,174.6-30.7,191.9c13.4,13.4,132.4,26.9,295.5,36.5C1286.5,4516.2,2449.2,4506.6,2900.1,4485.5z" /><path d="M1244.3,4097.9c-19.2-11.5-23-36.5-13.4-84.4c17.3-88.3,209.1-688.8,282.1-878.8c63.3-163.1,86.3-178.4,245.6-157.3l82.5,11.5l-13.4,69.1c-34.5,191.9-314.7,947.8-370.3,1003.5C1418.9,4099.9,1282.7,4124.8,1244.3,4097.9z" /><path d="M7781.2,1262.1c-76.7-88.3-80.6-120.9-23-203.4c30.7-42.2,65.2-80.6,78.7-84.4c11.5-3.8,44.1,28.8,69.1,72.9c53.7,88.3,49.9,117-30.7,205.3C7827.3,1304.4,7819.6,1304.4,7781.2,1262.1z" /><path d="M7470.4,736.4c-28.8-44.1-48-90.2-40.3-109.4c5.8-17.3,65.2-136.2,132.4-260.9l122.8-230.2l51.8,103.6l51.8,101.7l-53.7,126.6c-80.6,193.8-163.1,347.3-190,347.3C7531.8,815.1,7499.2,780.6,7470.4,736.4z" /><path d="M7098.2,135.9c-32.6-57.6-61.4-113.2-61.4-126.6c0-34.5,347.3-539.1,364.5-527.6c21.1,13.5,76.8,178.4,76.8,226.4c0,61.4-266.7,531.5-303.1,531.5C7167.2,239.5,7132.7,193.4,7098.2,135.9z" /><path d="M6798.9-386c-28.8-30.7-65.2-78.7-80.6-109.3c-26.9-51.8-23-61.4,159.2-372.2c103.6-176.5,199.5-322.4,213-328.1c36.5-11.5,105.5,161.2,92.1,230.2c-15.4,76.7-228.3,508.4-284,577.5l-46,55.6L6798.9-386z" /><path d="M6493.8-1011.5c-101.7-136.2-101.7-134.3-1.9-318.5c186.1-343.5,337.7-598.7,355-598.7c11.5,0,36.5,38.4,57.6,86.3l38.4,88.3l-99.8,234.1c-119,282-264.8,569.8-287.8,569.8C6547.5-950.1,6518.7-978.9,6493.8-1011.5z" /><path d="M6135-1587.1c-34.5-25-80.6-67.2-101.7-95.9l-36.5-49.9l190-343.5c276.3-493.1,285.9-510.4,331.9-485.4c61.4,32.6,101.7,109.4,90.2,170.8c-28.8,143.9-356.9,846.1-395.3,846.1C6206-1544.9,6169.6-1564.1,6135-1587.1z" /><path d="M5676.5-2156.9c-21.1-21.1-49.9-74.8-63.3-119l-23-80.6l205.3-404.9c243.7-479.7,425.9-796.2,468.2-811.6c38.4-15.4,120.9,74.8,120.9,130.4c0,124.7-498.8,1212.6-587.1,1281.7C5734-2110.9,5722.5-2110.9,5676.5-2156.9z" /><path d="M5256.3-2786.2c-105.5-51.8-105.5-74.8-7.7-285.9c117.1-251.3,379.9-754.1,422.1-807.8c28.8-38.4,40.3-40.3,119-23c136.2,30.7,140.1,40.3,72.9,195.7c-155.4,368.4-395.2,844.2-458.6,913.3C5357.9-2746,5338.8-2744,5256.3-2786.2z" /><path d="M4774.7-3204.5c-53.7-26.9-103.6-59.5-109.4-74.8c-11.5-30.7,95.9-239.8,236-460.5l84.4-132.4l124.7,11.5c69.1,3.8,130.5,15.3,136.2,21.1c28.8,28.8-295.5,650.4-349.2,671.5C4884-3164.2,4828.4-3179.6,4774.7-3204.5z" /><path d="M4306.5-3521.1c-38.4-7.7-76.7-19.2-84.4-26.9c-15.3-13.4,17.3-147.7,65.2-274.3c28.8-80.6,30.7-82.5,122.8-82.5c49.9,0,95.9,7.7,101.7,15.4c19.2,32.6-101.7,399.1-128.5,385.7C4381.4-3505.7,4346.8-3513.4,4306.5-3521.1z" /></g></g>
      </svg>